# xmcd
#
# Track frame offsets: 
#        150
#        33553
#        64385
#        92203
#        125508
#        169273
#        220600
#
# Disc length: 3322 seconds
#
# Revision: 1
# Processed by: cddbd v1.5.2PL0 Copyright (c) Steve Scherf et al.
# Submitted via: ExactAudioCopy v0.95b4
#
DISCID=640cf807
DTITLE=Peter Hammill - Skeletons Of Songs [CD 2)
DYEAR=1978
DGENRE=Progressive Rock
TTITLE0=The Comet, The Course, The Tail (Live in Kansas 16.02.78)
TTITLE1=The Lie (Bernini's St. Theresa) (Live in Kansas 16.02.78)
TTITLE2=The Mousetrap (Caught In) (Live in Kansas 16.02.78)
TTITLE3=In The End (Live in Kansas 16.02.78)
TTITLE4=Medley: A Plague Of Lighthouse Keepers/The Sleepwalkers (Live 
TTITLE4=in Kansas 16.02.78)
TTITLE5=Man-Erg (Live in Kansas 16.02.78)
TTITLE6=Refugees (Live in Kansas 16.02.78)
EXTD=
EXTT0=
EXTT1=
EXTT2=
EXTT3=
EXTT4=
EXTT5=
EXTT6=
PLAYORDER=
